<?xml version="1.0" standalone="no"?>
<!DOCTYPE svg PUBLIC "-//W3C//DTD SVG 20010904//EN"
 "http://www.w3.org/TR/2001/REC-SVG-20010904/DTD/svg10.dtd">
<svg version="1.0" xmlns="http://www.w3.org/2000/svg"
 width="594.000000pt" height="420.000000pt" viewBox="0 0 594.000000 420.000000"
 preserveAspectRatio="xMidYMid meet">

<g transform="translate(0.000000,420.000000) scale(0.100000,-0.100000)"
fill="#000000" stroke="none">
<path d="M2720 3735 c-89 -14 -194 -41 -270 -70 -25 -9 -65 -23 -90 -32 -25
-9 -100 -50 -167 -91 -385 -234 -640 -595 -722 -1025 -31 -162 -30 -395 4
-563 105 -517 458 -934 947 -1117 334 -125 697 -128 1033 -7 168 60 322 149
468 270 179 148 321 356 422 620 90 232 117 515 75 765 -56 333 -193 608 -410
825 -217 218 -466 351 -780 416 -105 22 -400 27 -510 9z m318 -510 c23 -10 42
-19 42 -21 0 -6 -52 -134 -55 -134 -1 0 -17 7 -35 17 -19 9 -59 17 -94 17 -54
1 -61 -1 -61 -19 0 -15 13 -22 70 -37 118 -30 152 -46 176 -84 17 -28 20 -46
17 -88 -5 -65 -34 -108 -91 -139 -37 -19 -56 -22 -157 -21 -95 0 -123 4 -162
22 -27 12 -48 27 -48 34 0 20 48 118 57 118 4 -1 33 -9 63 -20 69 -24 148 -26
157 -5 3 9 3 18 1 21 -3 2 -47 15 -97 28 -103 26 -137 46 -164 97 -21 40 -17
104 10 149 17 30 77 68 127 81 48 13 197 3 244 -16z m-531 -9 c55 -26 83 -64
83 -111 0 -34 -26 -94 -43 -101 -10 -3 -3 -16 25 -43 37 -38 43 -57 38 -121
-3 -41 -29 -71 -85 -96 -51 -23 -60 -24 -235 -22 l-181 3 0 255 c1 140 1 256
1 258 0 1 78 2 173 2 161 0 175 -2 224 -24z m1001 -25 c12 -26 35 -78 52 -114
16 -36 30 -68 30 -71 0 -3 11 -29 24 -58 73 -163 96 -216 96 -222 0 -3 -42 -6
-93 -6 l-93 0 -14 43 -15 42 -93 3 -93 3 -20 -46 -20 -45 -89 0 c-50 0 -90 4
-90 9 0 5 17 47 39 93 21 45 51 111 65 145 14 35 37 86 50 115 13 29 34 77 46
106 l22 52 88 0 88 0 20 -49z m-799 -890 c21 -6 23 -9 10 -19 -8 -7 -27 -24
-42 -37 -16 -14 -44 -32 -63 -40 -19 -8 -34 -19 -34 -24 0 -6 -5 -11 -11 -11
-11 0 -9 28 5 60 4 9 -2 25 -14 38 l-20 22 22 5 c23 5 79 11 108 12 8 1 26 -2
39 -6z m631 -40 c0 -8 38 -13 210 -25 171 -13 193 -15 207 -20 8 -3 11 -10 8
-16 -3 -5 -1 -10 4 -10 19 0 12 -17 -9 -23 -11 -3 -20 -1 -20 4 0 5 -11 9 -25
9 -14 0 -25 -4 -25 -10 0 -5 -13 -10 -28 -10 -54 0 -70 -41 -24 -62 21 -10 27
-21 29 -48 1 -19 -1 -27 -4 -17 -2 9 -22 26 -43 37 -21 11 -41 24 -45 30 -9
15 -45 12 -45 -4 0 -8 -8 -16 -17 -18 -26 -6 -54 3 -47 14 3 5 3 17 -1 26 -6
15 -8 14 -16 -5 -5 -14 -18 -24 -31 -24 -75 -5 -109 -2 -125 12 -25 21 -97 24
-116 4 -9 -8 -26 -15 -39 -15 -30 0 -51 -19 -38 -35 13 -16 -5 -39 -25 -32
-11 5 -14 13 -10 26 4 14 -1 23 -17 32 -22 12 -68 55 -68 65 0 2 7 4 15 4 8 0
25 11 37 25 12 14 38 30 57 35 47 13 104 13 96 0 -7 -12 11 -12 39 -1 14 5 16
10 8 15 -21 13 29 45 71 46 20 0 37 -4 37 -9z m-1043 -27 c-3 -3 -12 -4 -19
-1 -8 3 -5 6 6 6 11 1 17 -2 13 -5z m166 -30 c-3 -8 -12 -14 -20 -14 -12 0
-13 3 -3 15 6 8 8 20 4 27 -6 10 -4 10 8 0 9 -8 14 -20 11 -28z m-403 -7 c-25
-23 -45 -32 -70 -33 -19 0 -43 -4 -52 -8 -12 -5 -18 -4 -18 3 0 6 10 15 23 20
12 5 30 19 39 30 14 16 29 21 65 21 l48 0 -35 -33z m228 10 c24 -2 45 0 48 5
3 4 10 8 15 8 6 0 4 -7 -5 -15 -8 -8 -19 -15 -24 -15 -18 0 -51 -45 -43 -59 5
-7 12 -12 17 -10 5 1 15 -11 23 -26 l14 -28 14 26 c7 15 18 27 23 27 6 0 10 6
10 14 0 7 6 19 14 25 11 9 15 7 19 -9 3 -13 11 -18 20 -14 9 3 16 -3 20 -17 8
-29 1 -39 -27 -39 -13 0 -34 -8 -47 -18 -40 -31 -58 -33 -81 -12 -12 11 -27
19 -32 19 -27 -3 -33 2 -28 27 3 19 1 25 -7 20 -6 -4 -11 -16 -11 -27 0 -18
-6 -20 -77 -17 l-78 3 -3 43 c-2 24 -8 42 -15 42 -7 0 4 14 23 31 37 32 43 32
218 16z m652 4 c0 -5 -7 -14 -15 -21 -8 -7 -15 -21 -15 -31 0 -11 -4 -19 -10
-19 -15 0 -12 28 6 55 16 25 34 33 34 16z m30 -45 c-14 -14 -19 -5 -13 28 6
30 6 30 15 6 5 -14 5 -27 -2 -34z m57 48 c-3 -3 -12 -4 -19 -1 -8 3 -5 6 6 6
11 1 17 -2 13 -5z m731 -100 c-10 -10 -28 6 -28 24 0 15 1 15 17 -1 9 -9 14
-19 11 -23z m-764 -15 c-3 -5 -10 -7 -15 -3 -5 3 -7 10 -3 15 3 5 10 7 15 3 5
-3 7 -10 3 -15z m-54 1 c8 -5 11 -12 8 -16 -10 -9 -38 3 -38 16 0 12 10 13 30
0z m351 -16 c8 -8 21 -14 28 -14 7 0 11 -6 8 -12 -2 -8 -15 -12 -30 -10 -15 2
-27 -1 -27 -6 0 -6 9 -8 20 -5 11 3 20 1 20 -5 0 -15 -59 -20 -86 -8 -13 6
-24 15 -24 19 0 5 -8 6 -18 2 -20 -6 -76 18 -66 28 4 3 20 3 36 0 23 -4 33 -1
45 16 12 18 21 21 46 15 18 -3 39 -12 48 -20z m-404 -4 c-1 -11 -5 -20 -9 -20
-11 0 -20 19 -13 30 11 17 24 11 22 -10z m716 -15 c43 -22 45 -43 4 -63 -25
-12 -38 -42 -18 -42 14 0 33 -67 26 -89 -11 -34 -117 -39 -124 -5 -5 26 -21
35 -54 28 -36 -7 -87 16 -87 39 0 11 -9 21 -19 24 -25 6 -34 30 -15 37 8 3 14
12 14 19 0 31 26 39 62 17 41 -23 128 -39 128 -22 0 6 12 18 28 26 23 12 24
16 10 21 -9 4 -14 13 -11 21 3 8 8 13 12 12 3 -2 23 -12 44 -23z m-569 6 c11
-4 15 -10 9 -14 -14 -9 -84 4 -77 14 6 11 41 11 68 0z m472 -7 c24 9 27 -14 4
-34 -29 -25 -89 -13 -127 26 -11 10 -8 13 14 16 16 2 43 0 61 -5 19 -5 40 -6
48 -3z m-658 -16 c-4 -31 -36 -37 -33 -6 3 29 2 28 21 28 10 0 14 -7 12 -22z
m-609 -2 c6 -7 9 -21 5 -30 -3 -9 -1 -16 5 -16 6 0 11 6 12 13 0 10 2 10 6 0
7 -18 34 -16 61 3 12 8 22 11 22 6 0 -5 -11 -15 -25 -22 -14 -7 -25 -19 -25
-26 0 -28 -54 -64 -94 -64 -23 0 -47 -7 -58 -17 -16 -14 -18 -14 -18 0 0 9
-12 18 -32 22 -75 14 -88 25 -84 62 2 18 14 45 26 58 21 23 31 25 106 25 57 0
85 -4 93 -14z m741 -6 c0 -5 -4 -10 -9 -10 -6 0 -13 5 -16 10 -3 6 1 10 9 10
9 0 16 -4 16 -10z m250 -35 c20 -24 6 -28 -15 -5 -10 11 -13 20 -8 20 6 0 16
-7 23 -15z m-420 1 c0 -2 -3 -11 -6 -20 -9 -23 -34 -20 -34 4 0 13 7 20 20 20
11 0 20 -2 20 -4z m268 -16 c6 0 12 -4 12 -9 0 -11 -57 -20 -83 -13 -20 5 -20
5 -1 19 10 8 28 12 39 9 11 -3 26 -6 33 -6z m137 -10 c21 -23 17 -25 -19 -7
-14 8 -23 17 -19 20 10 11 19 8 38 -13z m-40 -24 c26 -1 31 -5 33 -31 2 -16 9
-36 15 -44 21 -25 -45 -3 -75 26 -32 31 -45 68 -20 58 9 -4 31 -8 47 -9z
m-315 -43 c6 -27 13 -53 15 -59 2 -6 -7 -17 -20 -24 -21 -11 -28 -10 -59 16
-19 16 -35 32 -35 36 -1 4 10 15 24 24 14 9 25 22 25 29 0 12 13 22 31 24 4 1
12 -20 19 -46z m414 38 c3 -4 -3 -16 -14 -26 -26 -23 -52 -6 -30 20 14 17 36
20 44 6z m-162 -24 c15 -28 5 -29 -26 -2 -26 22 -26 24 -6 22 12 -1 26 -10 32
-20z m-322 5 c0 -4 -9 -13 -20 -20 -22 -13 -27 -3 -8 16 14 14 28 16 28 4z
m544 -18 c4 -16 19 -30 41 -40 42 -17 44 -32 10 -68 -14 -15 -25 -38 -25 -52
0 -39 -18 -28 -31 19 -6 23 -17 55 -24 71 -11 25 -11 33 2 52 8 13 12 28 8 34
-3 5 -2 10 3 10 6 0 13 -12 16 -26z m-34 7 c0 -23 -26 -56 -42 -53 -23 4 -23
8 5 37 23 25 37 31 37 16z m-380 -11 c13 -7 21 -7 25 0 14 23 25 7 25 -40 l0
-49 -27 14 c-16 8 -36 16 -45 19 -24 7 -24 66 -1 66 3 0 13 -5 23 -10z m-812
-20 c14 -14 22 -33 22 -55 0 -24 5 -35 18 -38 11 -3 8 -5 -9 -6 -14 0 -34 6
-45 14 -10 8 -16 15 -11 15 4 0 -2 18 -13 40 -11 21 -20 42 -20 45 0 13 38 3
58 -15z m920 -5 c18 -38 15 -45 -18 -45 -28 0 -30 3 -30 35 0 27 4 35 18 35
11 0 24 -11 30 -25z m78 10 c17 -8 40 -28 52 -45 l23 -30 -27 -11 c-41 -15
-55 -8 -79 38 -16 30 -19 45 -12 52 13 13 8 14 43 -4z m347 -20 c-3 -9 -8 -14
-10 -11 -3 3 -2 9 2 15 9 16 15 13 8 -4z m-742 -28 c-10 -9 -11 -8 -5 6 3 10
9 15 12 12 3 -3 0 -11 -7 -18z m773 -31 c-9 -25 -24 -8 -24 27 0 31 0 31 15
10 8 -12 12 -28 9 -37z m-724 4 c0 -41 -9 -47 -44 -34 -20 8 -21 30 -1 38 8 3
15 12 15 21 0 8 7 15 15 15 11 0 15 -11 15 -40z m70 -32 c0 -4 -8 -8 -17 -8
-9 0 -26 -9 -38 -20 -20 -18 -23 -19 -35 -5 -10 13 -9 15 9 15 18 0 21 6 21
42 l0 42 30 -29 c17 -16 30 -32 30 -37z m77 36 c3 -8 1 -26 -5 -39 -9 -20 -18
-24 -49 -23 -21 1 -32 3 -25 6 6 2 12 9 12 15 0 13 40 57 52 57 5 0 11 -7 15
-16z m303 7 c0 -5 -6 -14 -14 -20 -12 -10 -13 -8 -9 8 5 21 23 30 23 12z
m-257 -13 c15 -12 15 -17 3 -53 -16 -45 -31 -55 -39 -25 -6 25 3 90 12 90 4 0
15 -6 24 -12z m103 -41 c-6 -24 -50 -49 -72 -40 -16 6 -16 9 -8 51 5 27 11 31
43 34 39 3 47 -7 37 -45z m460 13 c16 0 19 -16 5 -25 -10 -5 -32 25 -30 42 0
4 3 2 6 -4 2 -7 11 -13 19 -13z m-346 2 c0 -8 -43 -32 -55 -32 -15 0 -1 22 18
30 29 11 37 12 37 2z m-360 -42 c0 -5 -7 -10 -16 -10 -8 0 -12 5 -9 10 3 6 10
10 16 10 5 0 9 -4 9 -10z m280 -4 c0 -7 7 -19 15 -26 21 -17 19 -27 -7 -34
-34 -8 -55 16 -40 49 12 27 32 34 32 11z m-199 -14 c-24 -45 -66 -48 -54 -4 4
16 13 22 35 22 25 0 27 -3 19 -18z m-584 -37 c10 -7 12 -20 8 -38 -8 -30 -13
-32 -37 -13 -16 12 -16 32 -1 76 5 13 6 13 11 0 3 -8 12 -20 19 -25z m41 29
c22 -6 30 -28 12 -39 -10 -6 -50 24 -50 37 0 9 7 10 38 2z m809 0 c-3 -3 -12
-4 -19 -1 -8 3 -5 6 6 6 11 1 17 -2 13 -5z m-377 -12 c0 -13 -12 -22 -22 -16
-10 6 -1 24 13 24 5 0 9 -4 9 -8z m197 -9 c2 -6 -10 -13 -27 -15 -33 -5 -40 5
-12 21 20 12 34 10 39 -6z m60 2 c7 -20 0 -27 -20 -19 -25 9 -30 34 -6 34 11
0 22 -7 26 -15z m-139 -34 c-15 -5 -19 4 -11 24 6 18 7 18 13 -1 4 -10 3 -21
-2 -23z m227 -1 c-10 -11 -21 -17 -24 -14 -3 3 3 12 13 20 28 20 32 17 11 -6z
m-122 -45 c-1 -28 -2 -56 -2 -62 -1 -21 -28 -14 -34 8 -4 14 -11 20 -21 16
-20 -8 -25 11 -13 50 10 31 26 43 57 39 11 -1 15 -13 13 -51z m-623 34 c0 -7
12 -10 30 -7 26 4 29 2 24 -15 -5 -17 -2 -19 20 -15 14 3 26 2 26 -3 0 -4 12
-9 26 -11 36 -4 52 -30 37 -60 -6 -13 -14 -39 -17 -58 -5 -25 -15 -40 -37 -52
-17 -10 -27 -23 -24 -28 8 -13 -14 -42 -26 -34 -5 3 -5 13 1 24 7 13 5 24 -10
43 -11 14 -20 31 -20 39 0 22 -62 80 -81 76 -17 -4 -37 33 -21 39 6 3 12 15
12 29 0 17 4 22 15 18 8 -4 17 1 21 10 7 18 24 22 24 5z m651 -12 c-10 -9 -11
-8 -5 6 3 10 9 15 12 12 3 -3 0 -11 -7 -18z m59 -3 c0 -31 -23 -28 -28 4 -2
15 2 22 12 22 11 0 16 -9 16 -26z m534 -8 c-6 -17 -25 -21 -38 -9 -3 4 4 12
16 19 27 14 31 13 22 -10z m-724 4 c0 -5 -4 -10 -10 -10 -5 0 -10 5 -10 10 0
6 5 10 10 10 6 0 10 -4 10 -10z m30 6 c0 -3 -4 -8 -10 -11 -5 -3 -10 -1 -10 4
0 6 5 11 10 11 6 0 10 -2 10 -4z m610 -40 c0 -12 -5 -7 -19 24 -11 24 -11 24
3 6 9 -11 16 -24 16 -30z m-1255 -15 c-4 -21 -2 -32 10 -38 8 -5 17 -19 20
-31 8 -44 -33 -16 -55 37 -10 25 -10 34 0 46 20 24 32 17 25 -14z m789 -13 c8
-35 -16 -38 -38 -6 -20 29 -20 36 2 41 22 5 28 -1 36 -35z m716 26 c0 -8 -4
-12 -10 -9 -5 3 -10 10 -10 16 0 5 5 9 10 9 6 0 10 -7 10 -16z m40 -15 c0 -5
-7 -9 -15 -9 -8 0 -15 7 -15 15 0 9 6 12 15 9 8 -4 15 -10 15 -15z m-905 -19
c4 -6 10 -8 15 -5 12 7 19 -17 13 -46 -4 -21 -9 -25 -34 -21 -23 3 -27 7 -19
21 5 10 6 27 3 39 -5 22 10 31 22 12z m105 -32 c0 -19 -2 -20 -10 -8 -13 19
-13 30 0 30 6 0 10 -10 10 -22z m-650 -34 c0 -7 6 -15 13 -17 7 -3 5 -6 -5 -6
-10 -1 -18 -5 -18 -11 0 -16 -27 -11 -34 6 -3 9 -6 26 -6 40 0 22 2 23 25 12
14 -6 25 -17 25 -24z m691 -7 c-8 -8 -11 -5 -11 9 0 27 14 41 18 19 2 -9 -1
-22 -7 -28z m-66 23 c3 -6 -1 -13 -10 -16 -19 -8 -30 0 -20 15 8 14 22 14 30
1z m745 -4 c0 -7 6 -19 14 -25 11 -10 17 -7 30 11 11 15 16 18 16 7 0 -8 9
-32 20 -54 26 -51 26 -54 -10 -97 -37 -44 -80 -57 -80 -22 0 18 -7 24 -35 30
-19 3 -49 1 -66 -5 -46 -16 -49 -15 -49 25 0 41 15 74 34 74 7 0 24 10 38 23
14 13 29 22 35 20 5 -2 16 3 23 12 16 19 30 19 30 1z m-611 -50 c-7 -20 -17
-36 -22 -36 -11 0 0 50 15 68 18 21 21 6 7 -32z m-109 8 c0 -8 -7 -14 -15 -14
-15 0 -21 21 -9 33 10 9 24 -2 24 -19z m-84 -10 c-3 -9 -6 -27 -6 -40 0 -13
-4 -24 -9 -24 -9 0 -12 8 -27 63 -4 13 1 17 21 17 21 0 26 -4 21 -16z m42 -7
c2 -10 -4 -20 -13 -23 -21 -8 -25 -3 -18 24 6 25 26 24 31 -1z m-588 -1 c0 -8
7 -16 15 -20 8 -3 15 -10 15 -16 0 -5 -11 0 -25 12 -26 23 -32 38 -15 38 6 0
10 -6 10 -14z m650 -10 c0 -3 -4 -8 -10 -11 -5 -3 -10 -1 -10 4 0 6 5 11 10
11 6 0 10 -2 10 -4z m-654 -28 c10 -13 18 -34 16 -47 -2 -13 1 -28 7 -34 15
-15 14 -27 -4 -27 -15 0 -22 -20 -28 -80 -3 -37 -7 -32 -26 35 -13 46 -21 142
-14 162 8 20 27 16 49 -9z m620 -2 c0 -13 -4 -22 -8 -19 -16 9 -29 -8 -18 -22
9 -11 6 -16 -15 -21 -24 -6 -45 6 -44 26 0 6 71 58 80 59 4 1 6 -10 5 -23z"/>
<path d="M2280 3075 l0 -35 48 0 c59 0 92 20 76 47 -8 13 -26 19 -68 21 l-56
3 0 -36z"/>
<path d="M2280 2885 l0 -35 59 0 c75 0 91 6 91 35 0 29 -16 35 -91 35 l-59 0
0 -35z"/>
<path d="M3376 2993 c-9 -26 -16 -48 -16 -50 0 -2 18 -3 41 -3 37 0 40 2 34
23 -4 12 -11 26 -16 32 -5 5 -9 17 -9 27 0 33 -18 18 -34 -29z"/>
<path d="M2160 2200 c0 -5 9 -10 19 -10 11 0 23 5 26 10 4 6 -5 10 -19 10 -14
0 -26 -4 -26 -10z"/>
<path d="M2170 2170 c-12 -8 -12 -10 5 -9 11 0 29 4 40 9 18 8 18 9 -5 9 -14
0 -32 -4 -40 -9z"/>
</g>
</svg>
